%TF.GenerationSoftware,KiCad,Pcbnew,(6.0.2-0)*%
%TF.CreationDate,2022-03-13T16:27:26+11:00*%
%TF.ProjectId,Nydas,4e796461-732e-46b6-9963-61645f706362,rev?*%
%TF.SameCoordinates,Original*%
%TF.FileFunction,Soldermask,Bot*%
%TF.FilePolarity,Negative*%
%FSLAX46Y46*%
G04 Gerber Fmt 4.6, Leading zero omitted, Abs format (unit mm)*
G04 Created by KiCad (PCBNEW (6.0.2-0)) date 2022-03-13 16:27:26*
%MOMM*%
%LPD*%
G01*
G04 APERTURE LIST*
%ADD10O,2.500000X2.000000*%
%ADD11C,2.100000*%
%ADD12C,1.900000*%
%ADD13C,4.000000*%
%ADD14R,1.778000X1.397000*%
%ADD15O,1.778000X1.397000*%
%ADD16C,2.082800*%
G04 APERTURE END LIST*
D10*
%TO.C,SW21*%
X55880000Y-101600000D03*
X53340000Y-112580000D03*
X48240000Y-110580000D03*
X49530000Y-104140000D03*
D11*
X47840000Y-106680000D03*
D12*
X48260000Y-106680000D03*
X58420000Y-106680000D03*
D11*
X58840000Y-106680000D03*
D13*
X53340000Y-106680000D03*
%TD*%
D14*
%TO.C,D21*%
X54960000Y-96520000D03*
D15*
X60960000Y-96520000D03*
%TD*%
D14*
%TO.C,D6*%
X245460000Y-33020000D03*
D15*
X251460000Y-33020000D03*
%TD*%
D14*
%TO.C,D14*%
X185420000Y-66040000D03*
D15*
X191420000Y-66040000D03*
%TD*%
D11*
%TO.C,SW8*%
X157060000Y-71120000D03*
D13*
X162560000Y-71120000D03*
D12*
X167640000Y-71120000D03*
D11*
X168060000Y-71120000D03*
D12*
X157480000Y-71120000D03*
D10*
X157460000Y-75020000D03*
X158750000Y-68580000D03*
X162560000Y-77020000D03*
X165100000Y-66040000D03*
%TD*%
D14*
%TO.C,D39*%
X49880000Y-162560000D03*
D15*
X55880000Y-162560000D03*
%TD*%
D11*
%TO.C,SW27*%
X58840000Y-127000000D03*
D12*
X58420000Y-127000000D03*
X48260000Y-127000000D03*
D11*
X47840000Y-127000000D03*
D13*
X53340000Y-127000000D03*
D10*
X48240000Y-130900000D03*
X49530000Y-124460000D03*
X55880000Y-121920000D03*
X53340000Y-132900000D03*
%TD*%
D12*
%TO.C,SW6*%
X248920000Y-43180000D03*
D11*
X238340000Y-43180000D03*
D13*
X243840000Y-43180000D03*
D12*
X238760000Y-43180000D03*
D11*
X249340000Y-43180000D03*
D10*
X240030000Y-40640000D03*
X238740000Y-47080000D03*
X243840000Y-49080000D03*
X246380000Y-38100000D03*
%TD*%
D11*
%TO.C,SW30*%
X119800000Y-119380000D03*
X108800000Y-119380000D03*
D13*
X114300000Y-119380000D03*
D12*
X119380000Y-119380000D03*
X109220000Y-119380000D03*
D10*
X110490000Y-116840000D03*
X109200000Y-123280000D03*
X114300000Y-125280000D03*
X116840000Y-114300000D03*
%TD*%
D14*
%TO.C,D37*%
X136240000Y-144780000D03*
D15*
X142240000Y-144780000D03*
%TD*%
D14*
%TO.C,D16*%
X225600000Y-73660000D03*
D15*
X231600000Y-73660000D03*
%TD*%
D11*
%TO.C,SW38*%
X33440000Y-180340000D03*
D12*
X22860000Y-180340000D03*
X33020000Y-180340000D03*
D11*
X22440000Y-180340000D03*
D13*
X27940000Y-180340000D03*
D10*
X22840000Y-184240000D03*
X24130000Y-177800000D03*
X30480000Y-175260000D03*
X27940000Y-186240000D03*
%TD*%
D14*
%TO.C,D33*%
X55420000Y-137160000D03*
D15*
X61420000Y-137160000D03*
%TD*%
D14*
%TO.C,D7*%
X144320000Y-66040000D03*
D15*
X150320000Y-66040000D03*
%TD*%
D14*
%TO.C,D19*%
X251000000Y-99060000D03*
D15*
X257000000Y-99060000D03*
%TD*%
D14*
%TO.C,D35*%
X95600000Y-124460000D03*
D15*
X101600000Y-124460000D03*
%TD*%
D11*
%TO.C,SW4*%
X197700000Y-30480000D03*
X208700000Y-30480000D03*
D13*
X203200000Y-30480000D03*
D12*
X208280000Y-30480000D03*
X198120000Y-30480000D03*
D10*
X198100000Y-34380000D03*
X199390000Y-27940000D03*
X205740000Y-25400000D03*
X203200000Y-36380000D03*
%TD*%
D14*
%TO.C,D24*%
X115920000Y-88900000D03*
D15*
X121920000Y-88900000D03*
%TD*%
D13*
%TO.C,*%
X27940000Y-137160000D03*
%TD*%
D14*
%TO.C,D26*%
X157785000Y-109220000D03*
D15*
X163785000Y-109220000D03*
%TD*%
D14*
%TO.C,D1*%
X144320000Y-45720000D03*
D15*
X150320000Y-45720000D03*
%TD*%
D11*
%TO.C,SW16*%
X229020000Y-83820000D03*
X218020000Y-83820000D03*
D13*
X223520000Y-83820000D03*
D12*
X218440000Y-83820000D03*
X228600000Y-83820000D03*
D10*
X218420000Y-87720000D03*
X219710000Y-81280000D03*
X223520000Y-89720000D03*
X226060000Y-78740000D03*
%TD*%
D11*
%TO.C,SW26*%
X149440000Y-119380000D03*
D13*
X154940000Y-119380000D03*
D11*
X160440000Y-119380000D03*
D12*
X149860000Y-119380000D03*
X160020000Y-119380000D03*
D10*
X151130000Y-116840000D03*
X149840000Y-123280000D03*
X157480000Y-114300000D03*
X154940000Y-125280000D03*
%TD*%
D12*
%TO.C,SW14*%
X177800000Y-76200000D03*
D11*
X177380000Y-76200000D03*
D12*
X187960000Y-76200000D03*
D11*
X188380000Y-76200000D03*
D13*
X182880000Y-76200000D03*
D10*
X179070000Y-73660000D03*
X177780000Y-80100000D03*
X185420000Y-71120000D03*
X182880000Y-82100000D03*
%TD*%
D13*
%TO.C,SW9*%
X182880000Y-55880000D03*
D12*
X177800000Y-55880000D03*
D11*
X177380000Y-55880000D03*
X188380000Y-55880000D03*
D12*
X187960000Y-55880000D03*
D10*
X179070000Y-53340000D03*
X177780000Y-59780000D03*
X185420000Y-50800000D03*
X182880000Y-61780000D03*
%TD*%
D14*
%TO.C,D4*%
X205280000Y-20320000D03*
D15*
X211280000Y-20320000D03*
%TD*%
D11*
%TO.C,SW12*%
X249340000Y-63500000D03*
X238340000Y-63500000D03*
D12*
X238760000Y-63500000D03*
D13*
X243840000Y-63500000D03*
D12*
X248920000Y-63500000D03*
D10*
X238740000Y-67400000D03*
X240030000Y-60960000D03*
X243840000Y-69400000D03*
X246380000Y-58420000D03*
%TD*%
D14*
%TO.C,D9*%
X184500000Y-45720000D03*
D15*
X190500000Y-45720000D03*
%TD*%
D12*
%TO.C,SW39*%
X43180000Y-172720000D03*
D11*
X42760000Y-172720000D03*
X53760000Y-172720000D03*
D12*
X53340000Y-172720000D03*
D13*
X48260000Y-172720000D03*
D10*
X44450000Y-170180000D03*
X43160000Y-176620000D03*
X50800000Y-167640000D03*
X48260000Y-178620000D03*
%TD*%
D12*
%TO.C,SW28*%
X68580000Y-127000000D03*
D13*
X73660000Y-127000000D03*
D12*
X78740000Y-127000000D03*
D11*
X79160000Y-127000000D03*
X68160000Y-127000000D03*
D10*
X68560000Y-130900000D03*
X69850000Y-124460000D03*
X73660000Y-132900000D03*
X76200000Y-121920000D03*
%TD*%
D11*
%TO.C,SW37*%
X140120000Y-154940000D03*
X129120000Y-154940000D03*
D12*
X139700000Y-154940000D03*
D13*
X134620000Y-154940000D03*
D12*
X129540000Y-154940000D03*
D10*
X129520000Y-158840000D03*
X130810000Y-152400000D03*
X137160000Y-149860000D03*
X134620000Y-160840000D03*
%TD*%
D16*
%TO.C,U2*%
X25400000Y-101600000D03*
X25400000Y-104140000D03*
X25400000Y-106680000D03*
X25400000Y-109220000D03*
X25400000Y-111760000D03*
X25400000Y-114300000D03*
X25400000Y-116840000D03*
X25400000Y-119380000D03*
X25400000Y-121920000D03*
X25400000Y-124460000D03*
X25400000Y-127000000D03*
X25400000Y-129540000D03*
X40640000Y-129540000D03*
X40640000Y-127000000D03*
X40640000Y-124460000D03*
X40640000Y-121920000D03*
X40640000Y-119380000D03*
X40640000Y-116840000D03*
X40640000Y-114300000D03*
X40640000Y-111760000D03*
X40640000Y-109220000D03*
X40640000Y-106680000D03*
X40640000Y-104140000D03*
X40640000Y-101600000D03*
%TD*%
D14*
%TO.C,D13*%
X164180000Y-81280000D03*
D15*
X170180000Y-81280000D03*
%TD*%
D14*
%TO.C,D25*%
X136240000Y-104140000D03*
D15*
X142240000Y-104140000D03*
%TD*%
D14*
%TO.C,D17*%
X245920000Y-73660000D03*
D15*
X251920000Y-73660000D03*
%TD*%
D14*
%TO.C,D5*%
X225140000Y-33020000D03*
D15*
X231140000Y-33020000D03*
%TD*%
D11*
%TO.C,SW29*%
X88480000Y-114300000D03*
D12*
X99060000Y-114300000D03*
X88900000Y-114300000D03*
D13*
X93980000Y-114300000D03*
D11*
X99480000Y-114300000D03*
D10*
X88880000Y-118200000D03*
X90170000Y-111760000D03*
X93980000Y-120200000D03*
X96520000Y-109220000D03*
%TD*%
D11*
%TO.C,SW10*%
X197700000Y-50800000D03*
D12*
X198120000Y-50800000D03*
X208280000Y-50800000D03*
D13*
X203200000Y-50800000D03*
D11*
X208700000Y-50800000D03*
D10*
X199390000Y-48260000D03*
X198100000Y-54700000D03*
X203200000Y-56700000D03*
X205740000Y-45720000D03*
%TD*%
D11*
%TO.C,SW40*%
X74080000Y-167640000D03*
D12*
X63500000Y-167640000D03*
D13*
X68580000Y-167640000D03*
D12*
X73660000Y-167640000D03*
D11*
X63080000Y-167640000D03*
D10*
X63480000Y-171540000D03*
X64770000Y-165100000D03*
X71120000Y-162560000D03*
X68580000Y-173540000D03*
%TD*%
D13*
%TO.C,SW15*%
X203200000Y-71120000D03*
D12*
X208280000Y-71120000D03*
D11*
X197700000Y-71120000D03*
X208700000Y-71120000D03*
D12*
X198120000Y-71120000D03*
D10*
X199390000Y-68580000D03*
X198100000Y-75020000D03*
X205740000Y-66040000D03*
X203200000Y-77020000D03*
%TD*%
D14*
%TO.C,D31*%
X136700000Y-124460000D03*
D15*
X142700000Y-124460000D03*
%TD*%
D13*
%TO.C,SW3*%
X182880000Y-35560000D03*
D11*
X188380000Y-35560000D03*
D12*
X177800000Y-35560000D03*
X187960000Y-35560000D03*
D11*
X177380000Y-35560000D03*
D10*
X177780000Y-39460000D03*
X179070000Y-33020000D03*
X182880000Y-41460000D03*
X185420000Y-30480000D03*
%TD*%
D14*
%TO.C,D23*%
X96060000Y-83820000D03*
D15*
X102060000Y-83820000D03*
%TD*%
D12*
%TO.C,SW23*%
X99060000Y-93980000D03*
D13*
X93980000Y-93980000D03*
D12*
X88900000Y-93980000D03*
D11*
X88480000Y-93980000D03*
X99480000Y-93980000D03*
D10*
X90170000Y-91440000D03*
X88880000Y-97880000D03*
X96520000Y-88900000D03*
X93980000Y-99880000D03*
%TD*%
D14*
%TO.C,D10*%
X205280000Y-40640000D03*
D15*
X211280000Y-40640000D03*
%TD*%
D12*
%TO.C,SW5*%
X228600000Y-43180000D03*
X218440000Y-43180000D03*
D11*
X229020000Y-43180000D03*
D13*
X223520000Y-43180000D03*
D11*
X218020000Y-43180000D03*
D10*
X219710000Y-40640000D03*
X218420000Y-47080000D03*
X223520000Y-49080000D03*
X226060000Y-38100000D03*
%TD*%
D13*
%TO.C,*%
X269240000Y-73660000D03*
%TD*%
D11*
%TO.C,SW2*%
X157060000Y-50800000D03*
D13*
X162560000Y-50800000D03*
D12*
X157480000Y-50800000D03*
X167640000Y-50800000D03*
D11*
X168060000Y-50800000D03*
D10*
X158750000Y-48260000D03*
X157460000Y-54700000D03*
X165100000Y-45720000D03*
X162560000Y-56700000D03*
%TD*%
D13*
%TO.C,SW25*%
X134620000Y-114300000D03*
D11*
X129120000Y-114300000D03*
D12*
X139700000Y-114300000D03*
D11*
X140120000Y-114300000D03*
D12*
X129540000Y-114300000D03*
D10*
X129520000Y-118200000D03*
X130810000Y-111760000D03*
X137160000Y-109220000D03*
X134620000Y-120200000D03*
%TD*%
D11*
%TO.C,SW13*%
X168060000Y-91440000D03*
D12*
X167640000Y-91440000D03*
D11*
X157060000Y-91440000D03*
D13*
X162560000Y-91440000D03*
D12*
X157480000Y-91440000D03*
D10*
X157460000Y-95340000D03*
X158750000Y-88900000D03*
X165100000Y-86360000D03*
X162560000Y-97340000D03*
%TD*%
D14*
%TO.C,D2*%
X164180000Y-40640000D03*
D15*
X170180000Y-40640000D03*
%TD*%
D14*
%TO.C,D40*%
X70200000Y-157480000D03*
D15*
X76200000Y-157480000D03*
%TD*%
D16*
%TO.C,U1*%
X256540000Y-38100000D03*
X256540000Y-40640000D03*
X256540000Y-43180000D03*
X256540000Y-45720000D03*
X256540000Y-48260000D03*
X256540000Y-50800000D03*
X256540000Y-53340000D03*
X256540000Y-55880000D03*
X256540000Y-58420000D03*
X256540000Y-60960000D03*
X256540000Y-63500000D03*
X256540000Y-66040000D03*
X271780000Y-66040000D03*
X271780000Y-63500000D03*
X271780000Y-60960000D03*
X271780000Y-58420000D03*
X271780000Y-55880000D03*
X271780000Y-53340000D03*
X271780000Y-50800000D03*
X271780000Y-48260000D03*
X271780000Y-45720000D03*
X271780000Y-43180000D03*
X271780000Y-40640000D03*
X271780000Y-38100000D03*
%TD*%
D14*
%TO.C,D18*%
X229915000Y-93980000D03*
D15*
X235915000Y-93980000D03*
%TD*%
D13*
%TO.C,SW35*%
X93980000Y-134620000D03*
D12*
X88900000Y-134620000D03*
X99060000Y-134620000D03*
D11*
X88480000Y-134620000D03*
X99480000Y-134620000D03*
D10*
X90170000Y-132080000D03*
X88880000Y-138520000D03*
X96520000Y-129540000D03*
X93980000Y-140520000D03*
%TD*%
D14*
%TO.C,D8*%
X164180000Y-60960000D03*
D15*
X170180000Y-60960000D03*
%TD*%
D13*
%TO.C,*%
X259080000Y-73660000D03*
%TD*%
%TO.C,*%
X38100000Y-137160000D03*
%TD*%
D14*
%TO.C,D28*%
X75740000Y-116840000D03*
D15*
X81740000Y-116840000D03*
%TD*%
D12*
%TO.C,SW34*%
X78740000Y-147320000D03*
D11*
X79160000Y-147320000D03*
D12*
X68580000Y-147320000D03*
D11*
X68160000Y-147320000D03*
D13*
X73660000Y-147320000D03*
D10*
X69850000Y-144780000D03*
X68560000Y-151220000D03*
X73660000Y-153220000D03*
X76200000Y-142240000D03*
%TD*%
D12*
%TO.C,SW24*%
X119380000Y-99060000D03*
D11*
X108800000Y-99060000D03*
X119800000Y-99060000D03*
D12*
X109220000Y-99060000D03*
D13*
X114300000Y-99060000D03*
D10*
X110490000Y-96520000D03*
X109200000Y-102960000D03*
X114300000Y-104960000D03*
X116840000Y-93980000D03*
%TD*%
D11*
%TO.C,SW20*%
X263740000Y-119380000D03*
D13*
X269240000Y-119380000D03*
D12*
X274320000Y-119380000D03*
X264160000Y-119380000D03*
D11*
X274740000Y-119380000D03*
D10*
X265430000Y-116840000D03*
X264140000Y-123280000D03*
X271780000Y-114300000D03*
X269240000Y-125280000D03*
%TD*%
D14*
%TO.C,D12*%
X245920000Y-53340000D03*
D15*
X251920000Y-53340000D03*
%TD*%
D14*
%TO.C,D3*%
X185725000Y-25400000D03*
D15*
X191725000Y-25400000D03*
%TD*%
D11*
%TO.C,SW22*%
X68160000Y-106680000D03*
D12*
X68580000Y-106680000D03*
D11*
X79160000Y-106680000D03*
D12*
X78740000Y-106680000D03*
D13*
X73660000Y-106680000D03*
D10*
X69850000Y-104140000D03*
X68560000Y-110580000D03*
X73660000Y-112580000D03*
X76200000Y-101600000D03*
%TD*%
D14*
%TO.C,D32*%
X156560000Y-129540000D03*
D15*
X162560000Y-129540000D03*
%TD*%
D11*
%TO.C,SW17*%
X249340000Y-83820000D03*
X238340000Y-83820000D03*
D12*
X238760000Y-83820000D03*
X248920000Y-83820000D03*
D13*
X243840000Y-83820000D03*
D10*
X240030000Y-81280000D03*
X238740000Y-87720000D03*
X243840000Y-89720000D03*
X246380000Y-78740000D03*
%TD*%
D12*
%TO.C,SW19*%
X254000000Y-109220000D03*
D11*
X243420000Y-109220000D03*
X254420000Y-109220000D03*
D13*
X248920000Y-109220000D03*
D12*
X243840000Y-109220000D03*
D10*
X243820000Y-113120000D03*
X245110000Y-106680000D03*
X251460000Y-104140000D03*
X248920000Y-115120000D03*
%TD*%
D14*
%TO.C,D38*%
X30020000Y-170180000D03*
D15*
X36020000Y-170180000D03*
%TD*%
D14*
%TO.C,D20*%
X270860000Y-109220000D03*
D15*
X276860000Y-109220000D03*
%TD*%
D12*
%TO.C,SW33*%
X58420000Y-147320000D03*
X48260000Y-147320000D03*
D11*
X58840000Y-147320000D03*
D13*
X53340000Y-147320000D03*
D11*
X47840000Y-147320000D03*
D10*
X49530000Y-144780000D03*
X48240000Y-151220000D03*
X55880000Y-142240000D03*
X53340000Y-153220000D03*
%TD*%
D14*
%TO.C,D27*%
X54960000Y-116840000D03*
D15*
X60960000Y-116840000D03*
%TD*%
D14*
%TO.C,D11*%
X225140000Y-53340000D03*
D15*
X231140000Y-53340000D03*
%TD*%
D14*
%TO.C,D15*%
X205280000Y-60960000D03*
D15*
X211280000Y-60960000D03*
%TD*%
D14*
%TO.C,D22*%
X75280000Y-96520000D03*
D15*
X81280000Y-96520000D03*
%TD*%
D12*
%TO.C,SW7*%
X147320000Y-76200000D03*
D11*
X136740000Y-76200000D03*
D13*
X142240000Y-76200000D03*
D12*
X137160000Y-76200000D03*
D11*
X147740000Y-76200000D03*
D10*
X137140000Y-80100000D03*
X138430000Y-73660000D03*
X144780000Y-71120000D03*
X142240000Y-82100000D03*
%TD*%
D12*
%TO.C,SW11*%
X228600000Y-63500000D03*
D11*
X218020000Y-63500000D03*
D12*
X218440000Y-63500000D03*
D11*
X229020000Y-63500000D03*
D13*
X223520000Y-63500000D03*
D10*
X219710000Y-60960000D03*
X218420000Y-67400000D03*
X223520000Y-69400000D03*
X226060000Y-58420000D03*
%TD*%
D13*
%TO.C,SW36*%
X114300000Y-139700000D03*
D11*
X119800000Y-139700000D03*
D12*
X119380000Y-139700000D03*
X109220000Y-139700000D03*
D11*
X108800000Y-139700000D03*
D10*
X110490000Y-137160000D03*
X109200000Y-143600000D03*
X116840000Y-134620000D03*
X114300000Y-145600000D03*
%TD*%
D13*
%TO.C,SW31*%
X134620000Y-134620000D03*
D12*
X139700000Y-134620000D03*
D11*
X129120000Y-134620000D03*
D12*
X129540000Y-134620000D03*
D11*
X140120000Y-134620000D03*
D10*
X129520000Y-138520000D03*
X130810000Y-132080000D03*
X134620000Y-140520000D03*
X137160000Y-129540000D03*
%TD*%
D14*
%TO.C,D36*%
X115920000Y-129540000D03*
D15*
X121920000Y-129540000D03*
%TD*%
D14*
%TO.C,D34*%
X75280000Y-137160000D03*
D15*
X81280000Y-137160000D03*
%TD*%
D14*
%TO.C,D29*%
X95600000Y-104140000D03*
D15*
X101600000Y-104140000D03*
%TD*%
D13*
%TO.C,SW32*%
X154940000Y-139700000D03*
D12*
X149860000Y-139700000D03*
X160020000Y-139700000D03*
D11*
X149440000Y-139700000D03*
X160440000Y-139700000D03*
D10*
X149840000Y-143600000D03*
X151130000Y-137160000D03*
X154940000Y-145600000D03*
X157480000Y-134620000D03*
%TD*%
D12*
%TO.C,SW18*%
X223520000Y-104140000D03*
X233680000Y-104140000D03*
D11*
X223100000Y-104140000D03*
D13*
X228600000Y-104140000D03*
D11*
X234100000Y-104140000D03*
D10*
X223500000Y-108040000D03*
X224790000Y-101600000D03*
X231140000Y-99060000D03*
X228600000Y-110040000D03*
%TD*%
D14*
%TO.C,D30*%
X115920000Y-109220000D03*
D15*
X121920000Y-109220000D03*
%TD*%
D11*
%TO.C,SW1*%
X136740000Y-55880000D03*
D12*
X137160000Y-55880000D03*
X147320000Y-55880000D03*
D11*
X147740000Y-55880000D03*
D13*
X142240000Y-55880000D03*
D10*
X137140000Y-59780000D03*
X138430000Y-53340000D03*
X144780000Y-50800000D03*
X142240000Y-61780000D03*
%TD*%
M02*
