%TF.GenerationSoftware,KiCad,Pcbnew,(6.0.2-0)*%
%TF.CreationDate,2022-03-13T16:27:26+11:00*%
%TF.ProjectId,Nydas,4e796461-732e-46b6-9963-61645f706362,rev?*%
%TF.SameCoordinates,Original*%
%TF.FileFunction,Paste,Top*%
%TF.FilePolarity,Positive*%
%FSLAX46Y46*%
G04 Gerber Fmt 4.6, Leading zero omitted, Abs format (unit mm)*
G04 Created by KiCad (PCBNEW (6.0.2-0)) date 2022-03-13 16:27:26*
%MOMM*%
%LPD*%
G01*
G04 APERTURE LIST*
%ADD10R,1.400000X1.000000*%
G04 APERTURE END LIST*
D10*
%TO.C,D21*%
X56185000Y-96520000D03*
X59735000Y-96520000D03*
%TD*%
%TO.C,D6*%
X246685000Y-33020000D03*
X250235000Y-33020000D03*
%TD*%
%TO.C,D14*%
X186645000Y-66040000D03*
X190195000Y-66040000D03*
%TD*%
%TO.C,D39*%
X51105000Y-162560000D03*
X54655000Y-162560000D03*
%TD*%
%TO.C,D37*%
X137465000Y-144780000D03*
X141015000Y-144780000D03*
%TD*%
%TO.C,D16*%
X226825000Y-73660000D03*
X230375000Y-73660000D03*
%TD*%
%TO.C,D33*%
X56645000Y-137160000D03*
X60195000Y-137160000D03*
%TD*%
%TO.C,D7*%
X145545000Y-66040000D03*
X149095000Y-66040000D03*
%TD*%
%TO.C,D19*%
X252225000Y-99060000D03*
X255775000Y-99060000D03*
%TD*%
%TO.C,D35*%
X96825000Y-124460000D03*
X100375000Y-124460000D03*
%TD*%
%TO.C,D24*%
X117145000Y-88900000D03*
X120695000Y-88900000D03*
%TD*%
%TO.C,D26*%
X159010000Y-109220000D03*
X162560000Y-109220000D03*
%TD*%
%TO.C,D1*%
X145545000Y-45720000D03*
X149095000Y-45720000D03*
%TD*%
%TO.C,D4*%
X206505000Y-20320000D03*
X210055000Y-20320000D03*
%TD*%
%TO.C,D9*%
X185725000Y-45720000D03*
X189275000Y-45720000D03*
%TD*%
%TO.C,D13*%
X165405000Y-81280000D03*
X168955000Y-81280000D03*
%TD*%
%TO.C,D25*%
X137465000Y-104140000D03*
X141015000Y-104140000D03*
%TD*%
%TO.C,D17*%
X247145000Y-73660000D03*
X250695000Y-73660000D03*
%TD*%
%TO.C,D5*%
X226365000Y-33020000D03*
X229915000Y-33020000D03*
%TD*%
%TO.C,D31*%
X137925000Y-124460000D03*
X141475000Y-124460000D03*
%TD*%
%TO.C,D23*%
X97285000Y-83820000D03*
X100835000Y-83820000D03*
%TD*%
%TO.C,D10*%
X206505000Y-40640000D03*
X210055000Y-40640000D03*
%TD*%
%TO.C,D2*%
X165405000Y-40640000D03*
X168955000Y-40640000D03*
%TD*%
%TO.C,D40*%
X71425000Y-157480000D03*
X74975000Y-157480000D03*
%TD*%
%TO.C,D18*%
X231140000Y-93980000D03*
X234690000Y-93980000D03*
%TD*%
%TO.C,D8*%
X165405000Y-60960000D03*
X168955000Y-60960000D03*
%TD*%
%TO.C,D28*%
X76965000Y-116840000D03*
X80515000Y-116840000D03*
%TD*%
%TO.C,D12*%
X247145000Y-53340000D03*
X250695000Y-53340000D03*
%TD*%
%TO.C,D3*%
X186950000Y-25400000D03*
X190500000Y-25400000D03*
%TD*%
%TO.C,D32*%
X157785000Y-129540000D03*
X161335000Y-129540000D03*
%TD*%
%TO.C,D38*%
X31245000Y-170180000D03*
X34795000Y-170180000D03*
%TD*%
%TO.C,D20*%
X272085000Y-109220000D03*
X275635000Y-109220000D03*
%TD*%
%TO.C,D27*%
X56185000Y-116840000D03*
X59735000Y-116840000D03*
%TD*%
%TO.C,D11*%
X226365000Y-53340000D03*
X229915000Y-53340000D03*
%TD*%
%TO.C,D15*%
X206505000Y-60960000D03*
X210055000Y-60960000D03*
%TD*%
%TO.C,D22*%
X76505000Y-96520000D03*
X80055000Y-96520000D03*
%TD*%
%TO.C,D36*%
X117145000Y-129540000D03*
X120695000Y-129540000D03*
%TD*%
%TO.C,D34*%
X76505000Y-137160000D03*
X80055000Y-137160000D03*
%TD*%
%TO.C,D29*%
X96825000Y-104140000D03*
X100375000Y-104140000D03*
%TD*%
%TO.C,D30*%
X117145000Y-109220000D03*
X120695000Y-109220000D03*
%TD*%
M02*
